PathFileType	4	(X/Y/Z)	/Users/itak/Documents/Research/Walk-IL/dataset/trc/00288_00010.trc
DataRate	CameraRate	NumFrames	NumMarkers	Units	OrigDataRate	OrigDataStartFrame	OrigNumFrames
100.000000	100.000000	4	53	mm	100.000000	83	669
Frame#	Time	RPSI			LPSI			L3			STRN			T10			C7			CLAV			RBAK			LBAK			LSHO			LUPA			LAEL			LAOL			LWTS			LWPS			LFRA			LHPS			LHTS			RSHO			RUPA			RAEL			RAOL			RWTS			RWPS			RFRA			RIFD			RHPS			RBHD			LFHD			RFHD			LBHD			RHIP			RASI			LASI			LKNE			LTHI			LANK			LTIP			LTOE			LMT1			LMT5			LHEE			RKNE			RTHI			RANK			RTIP			RTOE			RMT1			RMT5			RHEE			LIFD			RHTS			LHIP			
		X1	Y1	Z1	X2	Y2	Z2	X3	Y3	Z3	X4	Y4	Z4	X5	Y5	Z5	X6	Y6	Z6	X7	Y7	Z7	X8	Y8	Z8	X9	Y9	Z9	X10	Y10	Z10	X11	Y11	Z11	X12	Y12	Z12	X13	Y13	Z13	X14	Y14	Z14	X15	Y15	Z15	X16	Y16	Z16	X17	Y17	Z17	X18	Y18	Z18	X19	Y19	Z19	X20	Y20	Z20	X21	Y21	Z21	X22	Y22	Z22	X23	Y23	Z23	X24	Y24	Z24	X25	Y25	Z25	X26	Y26	Z26	X27	Y27	Z27	X28	Y28	Z28	X29	Y29	Z29	X30	Y30	Z30	X31	Y31	Z31	X32	Y32	Z32	X33	Y33	Z33	X34	Y34	Z34	X35	Y35	Z35	X36	Y36	Z36	X37	Y37	Z37	X38	Y38	Z38	X39	Y39	Z39	X40	Y40	Z40	X41	Y41	Z41	X42	Y42	Z42	X43	Y43	Z43	X44	Y44	Z44	X45	Y45	Z45	X46	Y46	Z46	X47	Y47	Z47	X48	Y48	Z48	X49	Y49	Z49	X50	Y50	Z50	X51	Y51	Z51	X52	Y52	Z52	X53	Y53	Z53	

84	0.8300000000000001	184.1890258789062	958.1079711914062	1002.582763671875	128.205322265625	965.0314331054688	1166.400390625	130.5330963134766	1034.824096679688	1096.650512695312	-119.9888534545898	1185.074096679688	987.1461181640625	120.7533187866211	1152.92724609375	1109.241333007812	47.49770355224609	1390.572631835938	1093.265625	-74.89243316650391	1291.185668945312	1012.535095214844	137.6708831787109	1257.758178710938	1062.84423828125	12.46145820617676	1355.17236328125	1192.905517578125	-91.73987579345703	1347.540771484375	1190.028442382812	-97.13430023193359	1233.75146484375	1273.801879882812	-107.8338165283203	1032.344848632812	1287.691162109375	-23.41904830932617	1011.449462890625	1271.4853515625	-240.0044555664062	902.7405395507812	1157.792846679688	-231.7774658203125	852.34814453125	1207.31884765625	-153.5474243164062	944.7630615234375	1264.338989257812	-267.7516784667969	787.3684692382812	1164.720581054688	-306.0852966308594	827.0868530273438	1126.956298828125	76.72505950927734	1364.950073242188	925.830810546875	130.0539398193359	1316.74755859375	881.6461791992188	248.6562652587891	1079.678466796875	900.1078491210938	198.6313934326172	1066.22021484375	980.0236206054688	256.7113037109375	831.9285888671875	885.1237182617188	336.4601745605469	865.0438842773438	887.4208374023438	272.7400817871094	1016.798645019531	884.2765502929688	332.386962890625	666.7353515625	921.986572265625	371.1056823730469	755.118896484375	892.835205078125	77.61193084716797	1527.543823242188	1045.935180664062	-118.4268264770508	1589.963256835938	989.7619018554688	-46.40258026123047	1580.531372070312	931.8553466796875	-36.47961044311523	1532.414428710938	1135.88134765625	114.6226348876953	903.4968872070312	875.9952392578125	-18.29803848266602	905.1626586914062	913.4142456054688	-81.41890716552734	904.7626953125	1159.391845703125	87.43633270263672	456.4106140136719	1236.160034179688	55.41154861450195	597.5877685546875	1245.15771484375	310.1803283691406	56.23370742797852	1279.374389648438	199.9058380126953	254.0011749267578	1269.368286132812	110.7219924926758	36.41221618652344	1201.16845703125	186.5230102539062	30.83591270446777	1167.596069335938	188.5989379882812	43.99031066894531	1278.959228515625	364.2691650390625	54.71254730224609	1227.068603515625	-91.61756134033203	484.146728515625	839.6484985351562	17.26760673522949	724.1546020507812	838.10400390625	-212.9969787597656	48.8094482421875	829.3050537109375	-147.0579528808594	374.5973815917969	827.25390625	-394.8968200683594	121.5083923339844	790.0718383789062	-368.4017944335938	95.74806976318359	848.810546875	-292.5316162109375	74.16395568847656	762.6317749023438	-194.2940063476562	29.17305374145508	895.6893920898438	-315.4733581542969	755.0686645507812	1072.5029296875	308.9292602539062	722.8060302734375	875.5733032226562	40.01018905639648	914.4730834960938	1243.3154296875	
85	0.84	177.0282287597656	956.2094116210938	997.9653930664062	120.0914077758789	963.3902587890625	1161.440551757812	122.8582534790039	1032.479736328125	1091.827392578125	-126.354248046875	1183.6064453125	980.9642333984375	113.3975677490234	1150.353759765625	1104.490478515625	41.49795532226562	1388.40966796875	1088.176025390625	-80.99386596679688	1289.595336914062	1006.662719726562	131.1561431884766	1255.088989257812	1058.336181640625	5.653334140777588	1353.093627929688	1187.5537109375	-98.49964141845703	1345.943603515625	1184.1767578125	-104.454719543457	1232.009521484375	1267.834228515625	-115.7883377075195	1030.7578125	1281.423461914062	-31.47724151611328	1009.422302246094	1265.085571289062	-249.1111450195312	903.3346557617188	1150.812866210938	-241.3408660888672	852.5134887695312	1199.922607421875	-162.2094268798828	943.7611083984375	1257.576904296875	-278.19287109375	788.0696411132812	1156.70458984375	-316.0407104492188	828.7199096679688	1119.455932617188	71.70040130615234	1362.643798828125	920.956298828125	125.099723815918	1314.290405273438	877.19775390625	243.0216674804688	1077.05078125	896.660400390625	192.2662048339844	1063.623413085938	976.0914306640625	250.8049926757812	829.3035278320312	881.6557006835938	330.6011352539062	862.3219604492188	884.5927734375	267.1348876953125	1014.159362792969	880.9837646484375	326.03173828125	664.060791015625	919.3658447265625	365.0891723632812	752.35107421875	890.413330078125	72.51911163330078	1525.52294921875	1041.097412109375	-123.1338348388672	1588.552124023438	984.0501708984375	-50.82402420043945	1579.026245117188	926.4860229492188	-42.13708877563477	1530.503295898438	1130.469482421875	108.0895233154297	901.4096069335938	871.1162719726562	-25.06646537780762	903.0211791992188	907.7398071289062	-89.40165710449219	902.6964721679688	1153.495971679688	83.27205657958984	455.9609680175781	1233.600830078125	49.71484756469727	596.8538818359375	1241.578247070312	309.4943542480469	58.00537490844727	1280.058349609375	197.5458984375	254.9805145263672	1268.441528320312	110.7682266235352	36.38027572631836	1201.171508789062	186.7826080322266	31.1418342590332	1167.830810546875	188.0876770019531	44.10675048828125	1279.229125976562	363.8963928222656	57.22183227539062	1228.083740234375	-99.03628540039062	482.7587280273438	835.1107788085938	11.0079984664917	722.3735961914062	832.6635131835938	-216.8122100830078	46.62310791015625	829.734375	-153.5380249023438	372.1220703125	823.3831176757812	-398.4794921875	116.5427551269531	785.8117065429688	-373.1361083984375	91.82773590087891	845.4794921875	-295.0833435058594	69.99226379394531	761.10302734375	-199.2039642333984	28.23285102844238	896.8098754882812	-326.2276306152344	757.2449951171875	1064.399291992188	303.0123596191406	720.0723266601562	872.7005615234375	31.64664459228516	912.7278442382812	1237.97900390625	
86	0.85	169.6782836914062	954.4017944335938	993.1021728515625	111.7170333862305	961.8386840820312	1156.24072265625	114.9927978515625	1030.135864257812	1086.794921875	-132.8249206542969	1182.222412109375	974.5402221679688	105.8289489746094	1147.787475585938	1099.555786132812	35.41019058227539	1386.31103515625	1082.963989257812	-87.20882415771484	1288.0732421875	1000.593627929688	124.5138397216797	1252.420532226562	1053.69140625	-1.298164844512939	1351.052978515625	1182.0673828125	-105.4140701293945	1344.40380859375	1178.146118164062	-112.0027160644531	1230.315795898438	1261.673828125	-123.7980651855469	1029.199096679688	1275.025634765625	-39.59125137329102	1007.470275878906	1258.4990234375	-258.1669006347656	903.7979736328125	1143.755249023438	-250.8054656982422	852.5844116210938	1192.481689453125	-170.8347015380859	942.760986328125	1250.71337890625	-288.5054931640625	788.619140625	1148.633056640625	-325.8916625976562	830.1954345703125	1111.954223632812	66.61747741699219	1360.36865234375	915.9530029296875	120.0676574707031	1311.814086914062	872.610107421875	237.1538391113281	1074.339111328125	892.9804077148438	185.6817779541016	1060.947509765625	971.9202270507812	244.5169219970703	826.59130859375	877.87255859375	324.3826599121094	859.46826171875	881.4522705078125	261.2620239257812	1011.423095703125	877.437255859375	319.1537475585938	661.2376708984375	916.3487548828125	358.6266174316406	749.4286499023438	887.6334838867188	67.40483093261719	1523.515014648438	1036.11181640625	-127.8227615356445	1587.300903320312	978.2299194335938	-55.25045394897461	1577.63134765625	921.0015258789062	-47.79359817504883	1528.67724609375	1124.9296875	101.4074249267578	899.444091796875	865.93310546875	-31.98218536376953	900.9474487304688	901.8163452148438	-97.67304229736328	900.6920166015625	1147.283081054688	78.91249847412109	455.6983947753906	1230.912231445312	43.82154846191406	596.256591796875	1237.79541015625	308.6976013183594	60.04418563842773	1280.747314453125	195.0484466552734	256.2076110839844	1267.434448242188	110.7815093994141	36.34711456298828	1201.180786132812	186.9268188476562	31.53484535217285	1168.10107421875	187.4844970703125	44.26723861694336	1279.497924804688	363.3899536132812	60.09690093994141	1229.087036132812	-106.7815704345703	481.54736328125	830.414794921875	4.330338478088379	720.6841430664062	827.0555419921875	-219.6889038085938	44.67653274536133	830.4880981445312	-160.1317901611328	369.6905212402344	819.5049438476562	-401.5164184570312	110.716552734375	782.2647705078125	-377.1386413574219	87.12564849853516	842.7780151367188	-296.9219360351562	65.64874267578125	760.1187133789062	-203.0724029541016	27.61651420593262	898.196533203125	-336.8752136230469	759.2804565429688	1056.285888671875	296.6343688964844	717.23876953125	869.4640502929688	23.01616668701172	911.0820922851562	1232.371948242188	
87	0.86	162.1337738037109	952.7633056640625	987.9546508789062	103.1039428710938	960.436279296875	1150.77685546875	106.9240570068359	1027.843872070312	1081.510131835938	-139.4057464599609	1180.956909179688	967.8796997070312	98.06852722167969	1145.263549804688	1094.411376953125	29.25288391113281	1384.311889648438	1077.632202148438	-93.53395080566406	1286.656127929688	994.317138671875	117.75830078125	1249.78564453125	1048.907592773438	-8.378467559814453	1349.08447265625	1176.45068359375	-112.4802703857422	1342.964477539062	1171.939208984375	-119.7640991210938	1228.70458984375	1255.310668945312	-131.8865661621094	1027.701171875	1268.484497070312	-47.78145599365234	1005.6181640625	1251.736694335938	-267.1591491699219	904.1257934570312	1136.612915039062	-260.1723022460938	852.5596313476562	1185.015014648438	-179.4431915283203	941.7898559570312	1243.7470703125	-298.6643676757812	789.034423828125	1140.552856445312	-335.615966796875	831.483154296875	1104.452758789062	61.49568557739258	1358.157104492188	910.8289794921875	114.9748306274414	1309.345092773438	867.8927001953125	231.0572662353516	1071.556762695312	889.0640258789062	178.8728637695312	1058.2080078125	967.50830078125	237.8488006591797	823.8096313476562	873.7655029296875	317.7978820800781	856.5017700195312	877.98193359375	255.1257629394531	1008.607116699219	873.6303100585938	311.7616271972656	658.2853393554688	912.9224243164062	351.7198486328125	746.3734741210938	884.481201171875	62.26622009277344	1521.575927734375	1030.981689453125	-132.4899291992188	1586.253662109375	972.2923583984375	-59.68441009521484	1576.39306640625	915.39599609375	-53.44487762451172	1526.994506835938	1119.264770507812	94.56093597412109	897.6598510742188	860.4210205078125	-39.03895568847656	898.9569091796875	895.6813354492188	-106.2007904052734	898.7776489257812	1140.782104492188	74.30501556396484	455.633544921875	1228.044189453125	37.68898773193359	595.8145751953125	1233.79931640625	307.7630310058594	62.38922119140625	1281.448852539062	192.3840484619141	257.7030944824219	1266.3427734375	110.7561111450195	36.31143569946289	1201.199096679688	186.928466796875	32.01457214355469	1168.418823242188	186.7872467041016	44.47758865356445	1279.758544921875	362.7186889648438	63.37243270874023	1230.077880859375	-114.923583984375	480.6065979003906	825.4845581054688	-2.813780546188354	719.1199340820312	821.2960815429688	-221.8080291748047	43.14485168457031	831.3018188476562	-166.9918365478516	367.4908752441406	815.525146484375	-404.2165832519531	104.2532730102539	779.357666015625	-380.5543212890625	81.82852172851562	840.5900268554688	-298.2854309082031	61.39496231079102	759.4970703125	-206.0464935302734	27.45157814025879	899.5579833984375	-347.3812866210938	761.1317138671875	1048.185424804688	289.7837524414062	714.3237915039062	865.8524169921875	14.15189456939697	909.5917358398438	1226.488159179688	
